<svg width="22" height="21" viewBox="0 0 22 21" fill="none" xmlns="http://www.w3.org/2000/svg">
<g clip-path="url(#clip0_1_254)">
<path d="M20.3498 11.0988H20.0051V3.86165C20.0051 2.9886 19.7065 2.2534 19.1091 1.65605C18.5118 1.0587 17.7995 0.760027 16.9724 0.760027C16.1454 0.760027 15.4906 1.01275 15.0081 1.5182C14.5256 2.02365 14.2384 2.68992 14.1465 3.51702C13.733 3.60892 13.3998 3.8157 13.1471 4.13735C12.8944 4.459 12.768 4.8266 12.768 5.24014C12.768 5.46989 12.8829 5.58477 13.1127 5.58477H15.8697C16.0994 5.58477 16.2143 5.46989 16.2143 5.24014C16.2143 4.8266 16.0879 4.459 15.8352 4.13735C15.5825 3.8157 15.2493 3.6319 14.8358 3.58595C14.8817 2.9886 15.0885 2.48315 15.4561 2.0696C15.8237 1.65605 16.3292 1.44928 16.9724 1.44928C17.6157 1.44928 18.1671 1.67903 18.6266 2.13853C19.0861 2.59802 19.3159 3.1724 19.3159 3.86165V11.0988H8.97716C8.88526 10.6852 8.67849 10.3521 8.35684 10.0993C8.03519 9.84662 7.66759 9.72026 7.25404 9.72026C6.88644 9.26076 6.42694 9.03101 5.87554 9.03101C5.55389 9.03101 5.25522 9.11142 4.97952 9.27225C4.70382 9.43307 4.49705 9.65134 4.3592 9.92704C4.03755 9.78919 3.73887 9.72026 3.46317 9.72026C3.04962 9.72026 2.68202 9.84662 2.36037 10.0993C2.03872 10.3521 1.83195 10.6852 1.74005 11.0988C1.46435 11.0988 1.22311 11.2021 1.01634 11.4089C0.809564 11.6157 0.706177 11.8569 0.706177 12.1326C0.706177 12.4083 0.809564 12.6496 1.01634 12.8563C1.22311 13.0631 1.46435 13.1665 1.74005 13.1665H2.1536L3.11855 16.8195C3.2564 17.3709 3.54358 17.8189 3.98011 18.1636C4.41663 18.5082 4.91059 18.6805 5.46199 18.6805H5.73769L5.25522 19.5765C5.20927 19.6684 5.19778 19.7603 5.22076 19.8522C5.24373 19.9441 5.28968 20.0016 5.35861 20.0245C5.42753 20.0475 5.50794 20.059 5.59984 20.059C5.69174 20.059 5.78364 19.9901 5.87554 19.8522L6.42694 18.6805H16.0075L16.6278 19.8522C16.6738 19.9901 16.7542 20.059 16.8691 20.059C16.9839 20.059 17.0643 20.036 17.1103 19.9901C17.1562 19.9441 17.1907 19.8752 17.2137 19.7833C17.2367 19.6914 17.2252 19.5995 17.1792 19.5076L16.7657 18.6805C17.2711 18.6805 17.7421 18.5082 18.1786 18.1636C18.6152 17.8189 18.9023 17.3939 19.0402 16.8884L19.9362 13.1665H20.3498C20.6255 13.1665 20.8667 13.0631 21.0735 12.8563C21.2803 12.6496 21.3836 12.4083 21.3836 12.1326C21.3836 11.8569 21.2803 11.6157 21.0735 11.4089C20.8667 11.2021 20.6255 11.0988 20.3498 11.0988ZM15.525 4.89552H13.5262C13.5722 4.71172 13.6985 4.5509 13.9053 4.41305C14.1121 4.2752 14.3188 4.20627 14.5256 4.20627C14.7324 4.20627 14.9277 4.26371 15.1115 4.37858C15.2953 4.49346 15.4331 4.66577 15.525 4.89552ZM3.46317 10.4095C3.78482 10.4095 4.06052 10.5474 4.29027 10.8231C4.38217 10.915 4.49705 10.9379 4.6349 10.892C4.77274 10.846 4.84167 10.7541 4.84167 10.6163C4.93357 10.3406 5.07142 10.1223 5.25522 9.9615C5.43902 9.80067 5.64579 9.72026 5.87554 9.72026C6.33504 9.72026 6.65669 9.88109 6.84049 10.2027C6.84049 10.2946 6.87495 10.3521 6.94388 10.375C7.0128 10.398 7.09322 10.4095 7.18512 10.4095H7.32297C7.50676 10.4095 7.69056 10.4669 7.87436 10.5818C8.05816 10.6967 8.17304 10.869 8.21899 11.0988H2.49822C2.59012 10.869 2.71649 10.6967 2.87731 10.5818C3.03814 10.4669 3.23342 10.4095 3.46317 10.4095ZM18.4199 16.6817C18.282 17.0493 18.0638 17.3594 17.7651 17.6122C17.4664 17.8649 17.1103 17.9912 16.6967 17.9912H5.46199C5.04844 17.9912 4.69233 17.8649 4.39366 17.6122C4.09498 17.3594 3.8997 17.0493 3.8078 16.6817L2.91177 13.1665H19.247L18.4199 16.6817ZM20.3498 12.4773H19.6605H1.74005C1.5103 12.4773 1.39543 12.3624 1.39543 12.1326C1.39543 11.9029 1.5103 11.788 1.74005 11.788H20.3498C20.5795 11.788 20.6944 11.9029 20.6944 12.1326C20.6944 12.3624 20.5795 12.4773 20.3498 12.4773ZM13.1127 7.10112C13.3424 7.10112 13.4573 7.00922 13.4573 6.82542V6.61864C13.4573 6.38889 13.3424 6.27402 13.1127 6.27402C12.8829 6.27402 12.768 6.38889 12.768 6.61864V6.75649C12.768 6.98624 12.8829 7.10112 13.1127 7.10112ZM13.1127 8.75531C13.2046 8.75531 13.285 8.70936 13.3539 8.61746C13.4228 8.52556 13.4573 8.45664 13.4573 8.41069V7.99714C13.4573 7.76739 13.3424 7.65251 13.1127 7.65251C12.8829 7.65251 12.768 7.76739 12.768 7.99714V8.41069C12.768 8.64044 12.8829 8.75531 13.1127 8.75531ZM13.1127 10.0649C13.3424 10.0649 13.4573 9.95001 13.4573 9.72026V9.58241C13.4573 9.35266 13.3424 9.23779 13.1127 9.23779C12.8829 9.23779 12.768 9.35266 12.768 9.58241V9.72026C12.768 9.95001 12.8829 10.0649 13.1127 10.0649ZM14.4912 7.10112C14.7209 7.10112 14.8358 7.00922 14.8358 6.82542V6.61864C14.8358 6.38889 14.7209 6.27402 14.4912 6.27402C14.2614 6.27402 14.1465 6.38889 14.1465 6.61864V6.75649C14.1465 6.98624 14.2614 7.10112 14.4912 7.10112ZM14.1465 8.34176C14.1465 8.57151 14.2614 8.68639 14.4912 8.68639C14.5831 8.68639 14.6635 8.65193 14.7324 8.583C14.8013 8.51408 14.8358 8.43366 14.8358 8.34176V7.99714C14.8358 7.76739 14.7209 7.65251 14.4912 7.65251C14.2614 7.65251 14.1465 7.76739 14.1465 7.99714V8.34176ZM14.1465 9.72026C14.1465 9.95001 14.2614 10.0649 14.4912 10.0649C14.7209 10.0649 14.8358 9.95001 14.8358 9.72026V9.51349C14.8358 9.28374 14.7209 9.16886 14.4912 9.16886C14.2614 9.16886 14.1465 9.28374 14.1465 9.51349V9.72026ZM15.8697 7.10112C16.0994 7.10112 16.2143 7.00922 16.2143 6.82542V6.61864C16.2143 6.38889 16.0994 6.27402 15.8697 6.27402C15.6399 6.27402 15.525 6.38889 15.525 6.61864V6.75649C15.525 6.98624 15.6399 7.10112 15.8697 7.10112ZM15.525 8.34176C15.525 8.57151 15.6399 8.68639 15.8697 8.68639C15.9616 8.68639 16.042 8.65193 16.1109 8.583C16.1798 8.51408 16.2143 8.43366 16.2143 8.34176V7.99714C16.2143 7.76739 16.0994 7.65251 15.8697 7.65251C15.6399 7.65251 15.525 7.76739 15.525 7.99714V8.34176ZM15.525 9.72026C15.525 9.95001 15.6399 10.0649 15.8697 10.0649C16.0994 10.0649 16.2143 9.95001 16.2143 9.72026V9.51349C16.2143 9.28374 16.0994 9.16886 15.8697 9.16886C15.6399 9.16886 15.525 9.28374 15.525 9.51349V9.72026Z" fill="#696969"/>
</g>
<defs>
<clipPath id="clip0_1_254">
<rect width="20.6775" height="20.6775" fill="white" transform="matrix(1 0 0 -1 0.7052 20.7482)"/>
</clipPath>
</defs>
</svg>
