<svg width="22" height="21" viewBox="0 0 22 21" fill="none" xmlns="http://www.w3.org/2000/svg">
<g clip-path="url(#clip0_1_250)">
<path d="M20.3142 13.9935H19.9696V11.3743C19.9696 11.0067 19.8432 10.6966 19.5905 10.4438C19.3378 10.1911 19.0276 10.0648 18.66 10.0648V4.61969C18.66 4.25209 18.5336 3.94193 18.2809 3.6892C18.0282 3.43648 17.718 3.31011 17.3504 3.31011H3.84115C3.47355 3.31011 3.16339 3.43648 2.91067 3.6892C2.65794 3.94193 2.53158 4.25209 2.53158 4.61969V10.0648C2.16398 10.0648 1.85382 10.1911 1.6011 10.4438C1.34837 10.6966 1.22201 11.0067 1.22201 11.3743V13.9935H0.877384C0.785484 13.9935 0.716559 14.0164 0.670609 14.0624C0.62466 14.1083 0.601685 14.1773 0.601685 14.2692V15.5787C0.601685 15.6706 0.62466 15.7511 0.670609 15.82C0.716559 15.8889 0.785484 15.9234 0.877384 15.9234H1.22201V17.164C1.22201 17.2559 1.25647 17.3363 1.3254 17.4052C1.39432 17.4742 1.47473 17.5086 1.56663 17.5086H2.53158C2.71538 17.5086 2.80728 17.4167 2.80728 17.2329L3.08298 15.9234H18.1086L18.3843 17.2329C18.3843 17.4167 18.4762 17.5086 18.66 17.5086H19.625C19.7169 17.5086 19.7973 17.4742 19.8662 17.4052C19.9351 17.3363 19.9696 17.2559 19.9696 17.164V15.9234H20.3142C20.4061 15.9234 20.475 15.8889 20.521 15.82C20.5669 15.7511 20.5899 15.6706 20.5899 15.5787V14.2692C20.5899 14.1773 20.5669 14.1083 20.521 14.0624C20.475 14.0164 20.4061 13.9935 20.3142 13.9935ZM3.1519 4.61969C3.1519 4.43589 3.22083 4.27506 3.35868 4.13721C3.49653 3.99936 3.65735 3.93044 3.84115 3.93044H17.3504C17.5342 3.93044 17.6951 3.99936 17.8329 4.13721C17.9708 4.27506 18.0397 4.43589 18.0397 4.61969V10.0648H17.3504V8.8241C17.3504 8.4565 17.2241 8.14634 16.9713 7.89362C16.7186 7.64089 16.4314 7.51453 16.1098 7.51453H12.1811C11.8594 7.51453 11.5722 7.64089 11.3195 7.89362C11.0668 8.14634 10.9404 8.4565 10.9404 8.8241V10.0648H10.2512V8.8241C10.2512 8.4565 10.1248 8.14634 9.87208 7.89362C9.61936 7.64089 9.33217 7.51453 9.01052 7.51453H5.0818C4.76015 7.51453 4.47297 7.64089 4.22024 7.89362C3.96752 8.14634 3.84115 8.4565 3.84115 8.8241V10.0648H3.1519V4.61969ZM16.7301 8.8241V10.0648H11.5607V8.8241C11.5607 8.6403 11.6297 8.47948 11.7675 8.34163C11.9054 8.20378 12.0432 8.13485 12.1811 8.13485H16.1098C16.2936 8.13485 16.4429 8.20378 16.5578 8.34163C16.6727 8.47948 16.7301 8.6403 16.7301 8.8241ZM9.63084 8.8241V10.0648H4.46148V8.8241C4.46148 8.6403 4.51891 8.47948 4.63379 8.34163C4.74866 8.20378 4.898 8.13485 5.0818 8.13485H9.01052C9.14837 8.13485 9.28622 8.20378 9.42407 8.34163C9.56192 8.47948 9.63084 8.6403 9.63084 8.8241ZM1.84233 11.3743C1.84233 11.1905 1.91126 11.0412 2.04911 10.9263C2.18696 10.8114 2.34778 10.754 2.53158 10.754H18.66C18.8438 10.754 19.0046 10.8114 19.1425 10.9263C19.2803 11.0412 19.3493 11.1905 19.3493 11.3743V13.9935H1.84233V11.3743ZM2.25588 16.8883H1.84233V15.9234H2.46266L2.25588 16.8883ZM19.3493 16.8883H18.9357L18.7289 15.9234H19.3493V16.8883ZM19.9696 15.2341H1.22201V14.6138H19.9696V15.2341Z" fill="#696969"/>
</g>
<defs>
<clipPath id="clip0_1_250">
<rect width="20.6775" height="20.6775" fill="white" transform="matrix(1 0 0 -1 0.600586 20.7482)"/>
</clipPath>
</defs>
</svg>
