<svg width="31" height="17" viewBox="0 0 31 17" fill="none" xmlns="http://www.w3.org/2000/svg">
<path d="M10.2838 8.19293C11.2438 8.39752 12.0149 8.87752 12.5972 9.63293C13.1795 10.3726 13.4707 11.2224 13.4707 12.1824C13.4707 13.5674 12.9828 14.669 12.0071 15.4874C11.0471 16.29 9.7015 16.6913 7.97036 16.6913H0.25102V0.119499H7.71068C9.39462 0.119499 10.7087 0.505072 11.653 1.27622C12.613 2.04737 13.093 3.09392 13.093 4.41589C13.093 5.39162 12.8333 6.20211 12.314 6.84736C11.8104 7.49261 11.1336 7.94113 10.2838 8.19293ZM4.28774 6.82375H6.93167C7.59265 6.82375 8.09626 6.68211 8.44249 6.39884C8.80445 6.09982 8.98544 5.66703 8.98544 5.10048C8.98544 4.53392 8.80445 4.10113 8.44249 3.80212C8.09626 3.5031 7.59265 3.35359 6.93167 3.35359H4.28774V6.82375ZM7.26216 13.4336C7.93888 13.4336 8.45822 13.2841 8.82019 12.9851C9.1979 12.6703 9.38675 12.2218 9.38675 11.6395C9.38675 11.0572 9.19003 10.6008 8.79658 10.2703C8.41888 9.93982 7.89167 9.77457 7.21495 9.77457H4.28774V13.4336H7.26216ZM30.7549 0.119499V16.6913H26.7182V9.869H20.4388V16.6913H16.4021V0.119499H20.4388V6.6113H26.7182V0.119499H30.7549Z" fill="#FEFEFF"/>
</svg>
