<svg width="19" height="20" viewBox="0 0 19 20" fill="none" xmlns="http://www.w3.org/2000/svg">
<g clip-path="url(#clip0_1_151)">
<path d="M8.33254 4.3293H18.3505C18.6025 4.37131 18.802 4.2768 18.949 4.04577C19.0961 3.81475 19.0961 3.58373 18.949 3.35271C18.802 3.12169 18.6025 3.02718 18.3505 3.06918H8.33254C8.16452 3.06918 8.02801 3.13219 7.923 3.2582C7.81799 3.38421 7.76548 3.53123 7.76548 3.69924C7.76548 3.86726 7.81799 4.01427 7.923 4.14028C8.02801 4.2663 8.16452 4.3293 8.33254 4.3293ZM0.708817 4.3293H1.96894C2.05294 4.58133 2.19996 4.81235 2.40998 5.02237L2.91403 5.46341C3.25006 5.84144 3.6806 6.03046 4.20565 6.03046C4.7307 6.03046 5.18224 5.84144 5.56028 5.46341L6.00132 5.02237C6.37935 4.64433 6.56837 4.20329 6.56837 3.69924C6.56837 3.19519 6.37935 2.75415 6.00132 2.37612L5.56028 1.93508C5.18224 1.55704 4.7307 1.36802 4.20565 1.36802C3.6806 1.36802 3.22906 1.55704 2.85102 1.93508L2.47298 2.37612C2.26296 2.58614 2.11595 2.81716 2.03194 3.06918H0.708817C0.456793 3.02718 0.257274 3.12169 0.11026 3.35271C-0.0367535 3.58373 -0.0367535 3.81475 0.11026 4.04577C0.257274 4.2768 0.456793 4.37131 0.708817 4.3293ZM3.29206 3.2582L3.7331 2.81716C3.85911 2.69115 4.01663 2.62814 4.20565 2.62814C4.39467 2.62814 4.53118 2.69115 4.61519 2.81716L5.11923 3.2582C5.24525 3.38421 5.30825 3.53123 5.30825 3.69924C5.30825 3.86726 5.24525 4.01427 5.11923 4.14028L4.67819 4.58133C4.55218 4.70734 4.39467 4.77034 4.20565 4.77034C4.01663 4.77034 3.85911 4.70734 3.7331 4.58133L3.29206 4.14028C3.16605 4.01427 3.10304 3.86726 3.10304 3.69924C3.10304 3.53123 3.16605 3.38421 3.29206 3.2582ZM18.3505 9.36978H13.688C13.394 9.32777 13.184 9.42228 13.058 9.6533C12.932 9.88433 12.932 10.1153 13.058 10.3464C13.184 10.5774 13.394 10.6719 13.688 10.6299H18.4135C18.5395 10.6299 18.6655 10.5669 18.7915 10.4409C18.9175 10.3149 18.9805 10.1679 18.9805 9.99984C18.9805 9.83182 18.9175 9.68481 18.7915 9.5588C18.6655 9.43278 18.5395 9.36978 18.4135 9.36978H18.3505ZM0.708817 10.6299H7.32444C7.40845 10.8819 7.55546 11.1129 7.76548 11.323L8.20653 11.764C8.58456 12.142 9.0256 12.3311 9.52965 12.3311C10.0337 12.3311 10.4747 12.142 10.8528 11.764L11.2938 11.323C11.6719 10.9449 11.8609 10.5039 11.8609 9.99984C11.8609 9.49579 11.6719 9.05475 11.2938 8.67671L10.8528 8.23567C10.4747 7.85763 10.0337 7.66862 9.52965 7.66862C9.0256 7.66862 8.58456 7.85763 8.20653 8.23567L7.76548 8.67671C7.55546 8.88673 7.40845 9.11775 7.32444 9.36978H0.708817C0.540801 9.41178 0.404288 9.48529 0.299278 9.5903C0.194268 9.69531 0.141763 9.83182 0.141763 9.99984C0.141763 10.1679 0.194268 10.3149 0.299278 10.4409C0.404288 10.5669 0.540801 10.6299 0.708817 10.6299ZM8.64757 9.5588L9.08861 9.11775C9.21462 8.99174 9.36163 8.92874 9.52965 8.92874C9.69767 8.92874 9.84468 8.99174 9.97069 9.11775L10.4117 9.5588C10.5377 9.68481 10.6008 9.83182 10.6008 9.99984C10.6008 10.1679 10.5377 10.3149 10.4117 10.4409L9.97069 10.8819C9.84468 11.0079 9.69767 11.0709 9.52965 11.0709C9.36163 11.0709 9.21462 11.0079 9.08861 10.8819L8.64757 10.4409C8.52155 10.3149 8.45855 10.1679 8.45855 9.99984C8.45855 9.83182 8.52155 9.68481 8.64757 9.5588ZM16.2083 14.5363C15.8302 14.1582 15.3787 13.9692 14.8537 13.9692C14.3286 13.9692 13.8771 14.1582 13.499 14.5363L13.058 14.9773C12.848 15.1873 12.701 15.4183 12.6169 15.6704H0.708817C0.456793 15.6284 0.257274 15.7229 0.11026 15.9539C-0.0367535 16.1849 -0.0367535 16.4159 0.11026 16.647C0.257274 16.878 0.456793 16.9725 0.708817 16.9305H12.6169C12.743 17.1825 12.89 17.4135 13.058 17.6236L13.499 18.0646C13.8771 18.4426 14.3286 18.6317 14.8537 18.6317C15.3787 18.6317 15.8302 18.4426 16.2083 18.0646L16.6493 17.6236C17.0274 17.2455 17.2164 16.8045 17.2164 16.3004C17.2164 15.7964 17.0274 15.3553 16.6493 14.9773L16.2083 14.5363ZM15.7672 16.7415L15.3262 17.1825C15.2002 17.3085 15.0532 17.3715 14.8852 17.3715C14.7171 17.3715 14.5701 17.3085 14.4441 17.1825L14.0031 16.7415C13.8771 16.6155 13.8141 16.4684 13.8141 16.3004C13.8141 16.1324 13.8771 15.9854 14.0031 15.8594L14.4441 15.4183C14.5701 15.2923 14.7171 15.2293 14.8852 15.2293C15.0532 15.2293 15.2002 15.2923 15.3262 15.4183L15.7672 15.8594C15.8933 15.9854 15.9563 16.1324 15.9563 16.3004C15.9563 16.4684 15.8933 16.6155 15.7672 16.7415ZM18.3505 16.9305C18.1405 16.9305 17.9724 16.836 17.8464 16.647C17.7204 16.4579 17.6994 16.2584 17.7834 16.0484C17.7834 15.9644 17.8254 15.9014 17.9094 15.8594C18.0775 15.6494 18.298 15.5969 18.571 15.7019C18.844 15.8069 18.9805 16.0064 18.9805 16.3004C18.9805 16.4684 18.9175 16.6155 18.7915 16.7415C18.6655 16.8675 18.5185 16.9305 18.3505 16.9305Z" fill="#181A20"/>
</g>
<defs>
<clipPath id="clip0_1_151">
<rect width="18.9018" height="18.9018" fill="white" transform="matrix(1 0 0 -1 0 19.4509)"/>
</clipPath>
</defs>
</svg>
