<svg width="9" height="14" viewBox="0 0 9 14" fill="none" xmlns="http://www.w3.org/2000/svg">
<path d="M5.80542 6.37454C5.80542 6.37454 5.91005 6.26991 6.11931 6.06065C6.32858 5.85138 6.43321 5.45099 6.43321 4.85947C6.43321 4.26795 6.22395 3.76293 5.80542 3.3444C5.38689 2.92588 4.88187 2.71661 4.29035 2.71661C3.69883 2.71661 3.19381 2.92588 2.77529 3.3444C2.35676 3.76293 2.1475 4.26795 2.1475 4.85947C2.1475 5.45099 2.35676 5.95601 2.77529 6.37454C3.19381 6.79307 3.69883 7.00233 4.29035 7.00233C4.88187 7.00233 5.38689 6.79307 5.80542 6.37454ZM8.57607 4.85947C8.57607 5.46773 8.48399 5.96717 8.29984 6.3578L5.25296 12.8366C5.16368 13.0208 5.03115 13.1658 4.85536 13.2719C4.67958 13.3779 4.49125 13.4309 4.29035 13.4309C4.08946 13.4309 3.90112 13.3779 3.72534 13.2719C3.54956 13.1658 3.41982 13.0208 3.33611 12.8366L0.280866 6.3578C0.0967146 5.96717 0.00463867 5.46773 0.00463867 4.85947C0.00463867 3.67644 0.423165 2.66639 1.26022 1.82934C2.09727 0.992282 3.10732 0.573754 4.29035 0.573754C5.47339 0.573754 6.48343 0.992282 7.32049 1.82934C8.15754 2.66639 8.57607 3.67644 8.57607 4.85947Z" fill="white" fill-opacity="0.85"/>
</svg>
