<svg width="16" height="15" viewBox="0 0 16 15" fill="none" xmlns="http://www.w3.org/2000/svg">
<g clip-path="url(#clip0_1_772)">
<path d="M15.0092 5.94077V12.587C15.0092 12.9553 14.8781 13.2706 14.6158 13.5329C14.3535 13.7951 14.0382 13.9263 13.6699 13.9263H1.3485C0.980198 13.9263 0.664908 13.7951 0.402631 13.5329C0.140355 13.2706 0.00921631 12.9553 0.00921631 12.587V5.94077C0.254752 6.21421 0.53656 6.45695 0.85464 6.66901C2.87473 8.04178 4.26145 9.00439 5.0148 9.55685C5.33288 9.79122 5.59097 9.97398 5.78907 10.1051C5.98717 10.2363 6.25085 10.3702 6.58009 10.5069C6.90933 10.6436 7.21625 10.712 7.50085 10.712H7.50922H7.51759C7.80218 10.712 8.1091 10.6436 8.43835 10.5069C8.76759 10.3702 9.03126 10.2363 9.22936 10.1051C9.42746 9.97398 9.68556 9.79122 10.0036 9.55685C10.9523 8.87046 12.3418 7.90785 14.1722 6.66901C14.4902 6.45137 14.7693 6.20863 15.0092 5.94077ZM15.0092 3.47983C15.0092 3.92068 14.8725 4.342 14.5991 4.74378C14.3256 5.14557 13.9852 5.48876 13.5779 5.77336C11.4796 7.22984 10.1738 8.13664 9.66044 8.49379C9.60464 8.53285 9.48606 8.61795 9.3047 8.74909C9.12333 8.88023 8.97266 8.98625 8.85269 9.06717C8.73271 9.14808 8.58762 9.23877 8.41742 9.33921C8.24722 9.43966 8.08678 9.51499 7.93611 9.56522C7.78544 9.61544 7.64593 9.64055 7.51759 9.64055H7.50922H7.50085C7.3725 9.64055 7.23299 9.61544 7.08232 9.56522C6.93165 9.51499 6.77121 9.43966 6.60101 9.33921C6.43081 9.23877 6.28572 9.14808 6.16575 9.06717C6.04577 8.98625 5.8951 8.88023 5.71374 8.74909C5.53237 8.61795 5.41379 8.53285 5.35799 8.49379C4.85018 8.13664 4.11915 7.62744 3.16491 6.96616C2.21067 6.30489 1.63868 5.90729 1.44895 5.77336C1.10297 5.53899 0.776515 5.21672 0.469596 4.80656C0.162676 4.39641 0.00921631 4.01555 0.00921631 3.66398C0.00921631 3.22872 0.125009 2.86599 0.356594 2.57581C0.588178 2.28563 0.918814 2.14054 1.3485 2.14054H13.6699C14.0327 2.14054 14.3465 2.27168 14.6116 2.53396C14.8767 2.79624 15.0092 3.11153 15.0092 3.47983Z" fill="white" fill-opacity="0.85"/>
</g>
<defs>
<clipPath id="clip0_1_772">
<rect width="15.02" height="15" fill="white" transform="matrix(1 0 0 -1 0 15)"/>
</clipPath>
</defs>
</svg>
