<svg width="19" height="18" viewBox="0 0 19 18" fill="none" xmlns="http://www.w3.org/2000/svg">
<path d="M13.8506 0.811127C12.9929 0.851971 12.2066 1.05619 11.4919 1.42379C10.7771 1.79139 10.1746 2.32237 9.68449 3.01672C9.19436 2.32237 8.5919 1.79139 7.87713 1.42379C7.16235 1.05619 6.3761 0.862183 5.51836 0.841761C4.66063 0.821339 3.84374 1.0664 3.0677 1.57696C2.29166 2.08751 1.66878 2.75124 1.19907 3.56812C0.729362 4.38501 0.494507 5.26316 0.494507 6.20258C0.494507 7.59129 0.882528 8.99021 1.65857 10.3993C2.43461 11.8085 3.55783 13.1665 5.02823 14.4736C6.41694 15.6989 7.92818 16.7609 9.56196 17.6594C9.64365 17.7003 9.72533 17.7003 9.80702 17.6594C11.4408 16.7609 12.952 15.6989 14.3407 14.4736C15.8111 13.1665 16.9344 11.8085 17.7104 10.3993C18.4865 8.99021 18.8745 7.59129 18.8745 6.20258C18.8745 5.26316 18.6396 4.38501 18.1699 3.56812C17.7002 2.75124 17.0773 2.08751 16.3013 1.57696C15.5252 1.0664 14.7083 0.811127 13.8506 0.811127ZM9.68449 17.0468C8.78591 16.5566 7.88734 15.9644 6.98876 15.27C5.35499 14.0447 4.04797 12.7785 3.0677 11.4715C1.76068 9.7152 1.10717 7.95889 1.10717 6.20258C1.10717 5.3857 1.31139 4.60965 1.71984 3.87446C2.12828 3.13926 2.67968 2.54701 3.37403 2.09772C4.06839 1.64844 4.80359 1.434 5.57963 1.45443C6.35567 1.47485 7.09087 1.67907 7.78523 2.06709C8.47958 2.45511 9.03098 2.9963 9.43942 3.69066C9.48027 3.81319 9.56196 3.87446 9.68449 3.87446C9.80702 3.87446 9.88871 3.81319 9.92955 3.69066C10.338 2.9963 10.8894 2.45511 11.5838 2.06709C12.2781 1.67907 13.0133 1.47485 13.7893 1.45443C14.5654 1.434 15.3006 1.64844 15.9949 2.09772C16.6893 2.54701 17.2407 3.13926 17.6491 3.87446C18.0576 4.60965 18.2618 5.3857 18.2618 6.20258C18.2618 7.95889 17.6083 9.7152 16.3013 11.4715C15.321 12.7785 14.014 14.0447 12.3802 15.27C11.4816 15.9644 10.5831 16.5566 9.68449 17.0468Z" fill="#484848"/>
</svg>
