<svg width="11" height="18" viewBox="0 0 11 18" fill="none" xmlns="http://www.w3.org/2000/svg">
<g clip-path="url(#clip0_1_192)">
<path d="M7.56103 8.58479C7.56103 8.58479 7.68123 8.46459 7.92162 8.2242C8.16201 7.98381 8.28221 7.52386 8.28221 6.84436C8.28221 6.16485 8.04182 5.58471 7.56103 5.10393C7.08025 4.62314 6.50011 4.38275 5.8206 4.38275C5.1411 4.38275 4.56096 4.62314 4.08017 5.10393C3.59939 5.58471 3.359 6.16485 3.359 6.84436C3.359 7.52386 3.59939 8.104 4.08017 8.58479C4.56096 9.06557 5.1411 9.30596 5.8206 9.30596C6.50011 9.30596 7.08025 9.06557 7.56103 8.58479ZM10.7438 6.84436C10.7438 7.54309 10.638 8.11682 10.4265 8.56555L6.9264 16.0081C6.82384 16.2196 6.67159 16.3863 6.46966 16.5081C6.26773 16.6299 6.05138 16.6908 5.8206 16.6908C5.58983 16.6908 5.37348 16.6299 5.17155 16.5081C4.96962 16.3863 4.82058 16.2196 4.72442 16.0081L1.21472 8.56555C1.00317 8.11682 0.8974 7.54309 0.8974 6.84436C0.8974 5.48535 1.37818 4.32506 2.33975 3.3635C3.30131 2.40193 4.4616 1.92115 5.8206 1.92115C7.17961 1.92115 8.3399 2.40193 9.30146 3.3635C10.263 4.32506 10.7438 5.48535 10.7438 6.84436Z" fill="#666666"/>
</g>
<defs>
<clipPath id="clip0_1_192">
<rect width="9.85626" height="17.2312" fill="white" transform="matrix(1 0 0 -1 0.893372 17.9217)"/>
</clipPath>
</defs>
</svg>
