<svg width="10" height="16" viewBox="0 0 10 16" fill="none" xmlns="http://www.w3.org/2000/svg">
<path d="M6.60295 7.28595C6.60295 7.28595 6.72198 7.16692 6.96004 6.92885C7.1981 6.69079 7.31713 6.2353 7.31713 5.56239C7.31713 4.88947 7.07907 4.31495 6.60295 3.83883C6.12683 3.36271 5.55231 3.12464 4.87939 3.12464C4.20647 3.12464 3.63195 3.36271 3.15583 3.83883C2.67971 4.31495 2.44165 4.88947 2.44165 5.56239C2.44165 6.2353 2.67971 6.80982 3.15583 7.28595C3.63195 7.76207 4.20647 8.00013 4.87939 8.00013C5.55231 8.00013 6.12683 7.76207 6.60295 7.28595ZM9.75487 5.56239C9.75487 6.25435 9.65013 6.82252 9.44063 7.2669L5.97447 14.6373C5.8729 14.8468 5.72213 15.0118 5.52215 15.1324C5.32218 15.253 5.10793 15.3134 4.87939 15.3134C4.65085 15.3134 4.4366 15.253 4.23663 15.1324C4.03666 15.0118 3.88906 14.8468 3.79383 14.6373L0.318146 7.2669C0.108653 6.82252 0.00390625 6.25435 0.00390625 5.56239C0.00390625 4.21655 0.480028 3.06751 1.43227 2.11527C2.38451 1.16302 3.53355 0.686903 4.87939 0.686903C6.22523 0.686903 7.37427 1.16302 8.32651 2.11527C9.27875 3.06751 9.75487 4.21655 9.75487 5.56239Z" fill="white"/>
</svg>
