<svg width="20" height="19" viewBox="0 0 20 19" fill="none" xmlns="http://www.w3.org/2000/svg">
<g clip-path="url(#clip0_1_214)">
<path d="M14.6707 12.0232C14.1397 12.0232 13.6496 12.1355 13.2003 12.3602C12.751 12.5848 12.363 12.9014 12.0362 13.3098L7.01235 10.7366C7.09403 10.4099 7.13488 10.1035 7.13488 9.81762C7.13488 9.36834 7.05319 8.95989 6.88981 8.59229L12.22 5.40643C12.5059 5.77403 12.8633 6.04973 13.2922 6.23353C13.721 6.41733 14.1805 6.50923 14.6707 6.50923C15.5692 6.50923 16.3351 6.2029 16.9682 5.59023C17.6012 4.97757 17.9178 4.22195 17.9178 3.32337C17.9178 2.42479 17.6012 1.65896 16.9682 1.02587C16.3351 0.392786 15.5692 0.0762424 14.6707 0.0762424C13.7721 0.0762424 13.0063 0.392786 12.3732 1.02587C11.7401 1.65896 11.4235 2.42479 11.4235 3.32337C11.4235 3.73181 11.5052 4.11983 11.6686 4.48743L6.33841 7.6733C6.01166 7.34654 5.64406 7.08105 5.23562 6.87683C4.82717 6.67261 4.37788 6.5705 3.88775 6.5705C2.98918 6.5705 2.22334 6.88704 1.59026 7.52013C0.957169 8.15322 0.640625 8.91905 0.640625 9.81762C0.640625 10.7162 0.957169 11.482 1.59026 12.1151C2.22334 12.7482 2.98918 13.0648 3.88775 13.0648C4.41873 13.0648 4.91907 12.9422 5.38878 12.6972C5.85849 12.4521 6.2363 12.1049 6.52221 11.6556L11.6073 14.2901C11.4848 14.576 11.4235 14.8823 11.4235 15.2091C11.4235 16.1077 11.7401 16.8735 12.3732 17.5066C13.0063 18.1397 13.7721 18.4562 14.6707 18.4562C15.5692 18.4562 16.3351 18.1397 16.9682 17.5066C17.6012 16.8735 17.9178 16.1077 17.9178 15.2091C17.9178 14.3105 17.6012 13.5549 16.9682 12.9422C16.3351 12.3296 15.5692 12.0232 14.6707 12.0232ZM14.6707 1.17904C15.2425 1.17904 15.7428 1.38326 16.1717 1.79171C16.6006 2.20015 16.815 2.70049 16.815 3.29274C16.815 3.88498 16.6006 4.39553 16.1717 4.8244C15.7428 5.25327 15.2323 5.4677 14.64 5.4677C14.0478 5.4677 13.5474 5.25327 13.139 4.8244C12.7306 4.39553 12.5263 3.88498 12.5263 3.29274C12.5263 2.70049 12.7306 2.20015 13.139 1.79171C13.5474 1.38326 14.058 1.17904 14.6707 1.17904ZM3.88775 11.962C3.31593 11.962 2.81559 11.7475 2.38672 11.3187C1.95786 10.8898 1.74342 10.3792 1.74342 9.78699C1.74342 9.19475 1.95786 8.6944 2.38672 8.28596C2.81559 7.87752 3.32614 7.6733 3.91839 7.6733C4.51063 7.6733 5.01097 7.87752 5.41942 8.28596C5.82786 8.6944 6.03208 9.19475 6.03208 9.78699C6.03208 10.3792 5.82786 10.8898 5.41942 11.3187C5.01097 11.7475 4.50042 11.962 3.88775 11.962ZM14.6707 17.3534C14.058 17.3534 13.5474 17.1492 13.139 16.7407C12.7306 16.3323 12.5263 15.832 12.5263 15.2397C12.5263 14.6475 12.7306 14.1369 13.139 13.708C13.5474 13.2792 14.0478 13.0648 14.64 13.0648C15.2323 13.0648 15.7428 13.2792 16.1717 13.708C16.6006 14.1369 16.815 14.6475 16.815 15.2397C16.815 15.832 16.6006 16.3323 16.1717 16.7407C15.7428 17.1492 15.2425 17.3534 14.6707 17.3534Z" fill="#484848"/>
</g>
<defs>
<clipPath id="clip0_1_214">
<rect width="18.38" height="18.38" fill="white" transform="matrix(1 0 0 -1 0.640625 18.4561)"/>
</clipPath>
</defs>
</svg>
